<?xml version="1.0" encoding="UTF-8" standalone="no"?>
<!-- Created with Inkscape (http://www.inkscape.org/) -->

<svg
   width="105.83353mm"
   height="63.500248mm"
   viewBox="0 0 105.83353 63.500248"
   version="1.1"
   id="svg8"
   inkscape:version="1.2.1 (9c6d41e410, 2022-07-14)"
   sodipodi:docname="Congreso_Diputados_ESP_logo.svg"
   xmlns:inkscape="http://www.inkscape.org/namespaces/inkscape"
   xmlns:sodipodi="http://sodipodi.sourceforge.net/DTD/sodipodi-0.dtd"
   xmlns="http://www.w3.org/2000/svg"
   xmlns:svg="http://www.w3.org/2000/svg"
   xmlns:rdf="http://www.w3.org/1999/02/22-rdf-syntax-ns#"
   xmlns:cc="http://creativecommons.org/ns#"
   xmlns:dc="http://purl.org/dc/elements/1.1/">
  <title
     id="title1260">Congreso de los Diputados ESP logo</title>
  <defs
     id="defs2" />
  <sodipodi:namedview
     id="base"
     pagecolor="#ffffff"
     bordercolor="#666666"
     borderopacity="1.0"
     inkscape:pageopacity="0.0"
     inkscape:pageshadow="2"
     inkscape:zoom="3.72"
     inkscape:cx="219.75806"
     inkscape:cy="123.92473"
     inkscape:document-units="px"
     inkscape:current-layer="layer1"
     showgrid="false"
     fit-margin-left="0.0001"
     fit-margin-top="0.0001"
     fit-margin-right="0.0001"
     fit-margin-bottom="0.0001"
     inkscape:window-width="1920"
     inkscape:window-height="1027"
     inkscape:window-x="-8"
     inkscape:window-y="-8"
     inkscape:window-maximized="1"
     inkscape:showpageshadow="2"
     inkscape:pagecheckerboard="0"
     inkscape:deskcolor="#d1d1d1" />
  <metadata
     id="metadata5">
    <rdf:RDF>
      <cc:Work
         rdf:about="">
        <dc:format>image/svg+xml</dc:format>
        <dc:type
           rdf:resource="http://purl.org/dc/dcmitype/StillImage" />
        <dc:title>Congreso de los Diputados ESP logo</dc:title>
        <dc:date>01/03/2018</dc:date>
        <dc:creator>
          <cc:Agent>
            <dc:title>CCGG ESP</dc:title>
          </cc:Agent>
        </dc:creator>
        <dc:publisher>
          <cc:Agent>
            <dc:title>CMetalCore</dc:title>
          </cc:Agent>
        </dc:publisher>
        <dc:source>http://4.bp.blogspot.com/-fSvAuV-hKOM/VltHSGjaxZI/AAAAAAAAS5I/PjiGjR0RiEE/s1600/logo-congreso-diputados_Rafael%2BMart%25C3%25ADnez%2BSainero_ok%2Bbja.jpg</dc:source>
        <cc:license
           rdf:resource="http://creativecommons.org/licenses/by-sa/4.0/" />
      </cc:Work>
      <cc:License
         rdf:about="http://creativecommons.org/licenses/by-sa/4.0/">
        <cc:permits
           rdf:resource="http://creativecommons.org/ns#Reproduction" />
        <cc:permits
           rdf:resource="http://creativecommons.org/ns#Distribution" />
        <cc:requires
           rdf:resource="http://creativecommons.org/ns#Notice" />
        <cc:requires
           rdf:resource="http://creativecommons.org/ns#Attribution" />
        <cc:permits
           rdf:resource="http://creativecommons.org/ns#DerivativeWorks" />
        <cc:requires
           rdf:resource="http://creativecommons.org/ns#ShareAlike" />
      </cc:License>
    </rdf:RDF>
  </metadata>
  <g
     inkscape:label="Capa 1"
     inkscape:groupmode="layer"
     id="layer1"
     transform="translate(450.1083,-123.15883)">
    <g
       id="g1258">
      <g
         id="g1251">
        <path
           id="path830"
           style="fill:#505050;fill-opacity:1;stroke-width:0.08437905"
           d="m -426.14963,146.99378 c 0.0634,-0.0812 0.25351,-0.29982 0.42251,-0.48563 0.35115,-0.38606 3.53884,-3.99519 4.13631,-4.68316 l 1.2453,-1.39962 c 0.42631,-0.48785 0.81977,-0.93405 0.87434,-0.99155 0.0546,-0.0575 0.5153,-0.57964 1.02383,-1.16029 0.50853,-0.58065 0.94514,-1.07472 0.97025,-1.09795 0.0251,-0.0233 0.34498,-0.38428 0.71082,-0.80234 0.90616,-1.03554 1.64119,-1.86784 2.49525,-2.82545 0.39547,-0.44342 1.11624,-1.26197 1.6017,-1.81897 0.85107,-0.97648 5.50294,-6.23789 5.68361,-6.42835 0.0487,-0.0513 0.48682,-0.55337 0.97365,-1.11573 0.73698,-0.85131 0.92519,-1.02302 1.12429,-1.0258 0.1315,-0.002 1.23163,0.2288 2.4447,0.5125 1.21308,0.2837 2.4332,0.56813 2.7114,0.63206 0.55478,0.12751 3.0137,0.71635 4.93158,1.18099 0.67229,0.16289 1.44997,0.34691 1.72816,0.40897 0.45187,0.10075 3.47658,0.82098 6.23825,1.48534 0.55637,0.13385 1.50475,0.36017 2.10751,0.50293 3.51011,0.8314 4.38989,1.05658 4.44548,1.13779 0.0751,0.10969 0.0294,0.26456 -0.0723,0.24537 -0.25081,-0.0473 -7.66954,-1.66579 -8.08232,-1.7633 -0.2782,-0.0657 -1.1507,-0.2552 -1.93892,-0.42107 -0.7882,-0.16587 -2.04006,-0.43451 -2.78192,-0.59699 -0.74184,-0.16246 -1.78506,-0.38976 -2.31826,-0.50511 -0.5332,-0.11535 -1.21603,-0.26422 -1.5174,-0.3308 -0.30139,-0.0666 -1.17389,-0.25685 -1.93892,-0.42279 -0.76503,-0.16595 -1.6565,-0.35968 -1.98106,-0.43052 -0.32456,-0.0708 -0.85566,-0.18556 -1.18022,-0.25493 -0.32455,-0.0694 -0.89358,-0.19655 -1.2645,-0.28262 -1.32129,-0.30659 -1.30743,-0.30717 -1.67479,0.0697 l -1.0329,1.17204 c -0.36086,0.40685 -0.77592,0.87275 -0.92238,1.03533 -1.18143,1.31157 -2.70921,3.02529 -3.58416,4.0204 -1.06593,1.21232 -3.70656,4.17964 -3.78783,4.25644 -0.0246,0.0232 -0.45943,0.51731 -0.96633,1.09795 -0.50691,0.58065 -0.94488,1.07472 -0.97326,1.09795 -0.0283,0.0232 -0.52272,0.57432 -1.09852,1.22464 -0.57581,0.65031 -1.06649,1.2014 -1.09044,1.22463 -0.0434,0.0422 -0.25834,0.28151 -1.41752,1.57887 -0.33842,0.37876 -0.72741,0.82999 -0.86444,1.00274 -0.13703,0.17274 -0.30112,0.35616 -0.36465,0.40759 -0.11557,0.0936 -0.53098,0.55682 -1.40118,1.56264 l -0.75889,0.83146 c -0.10023,0.12818 -0.33501,0.39677 -0.52173,0.59688 -0.18674,0.20009 -0.32522,0.37812 -0.30775,0.39562 0.0273,0.0273 1.61791,-0.4385 4.29976,-1.25952 0.7281,-0.22289 0.73213,-0.2257 1.30666,-0.90686 0.31696,-0.3758 0.67113,-0.78649 0.78705,-0.91267 0.11591,-0.12617 0.4194,-0.47158 0.6744,-0.76761 0.25502,-0.29603 0.66239,-0.76248 0.90529,-1.03657 l 0.70571,-0.79846 c 0.11085,-0.12654 0.56191,-0.648 1.00237,-1.15882 1.18038,-1.36887 1.21494,-1.40883 1.30676,-1.51089 l 3.25635,-3.74651 c 0.43435,-0.49935 0.88909,-1.02193 1.01053,-1.16129 0.12142,-0.13935 0.64915,-0.74744 1.1727,-1.35133 0.52356,-0.60386 1.1984,-1.37437 1.49965,-1.71222 0.30126,-0.33785 0.5956,-0.67984 0.65409,-0.75998 0.13392,-0.18349 0.17652,-0.13905 0.31799,0.33192 l 0.11417,0.37993 -0.76716,0.8681 c -0.42196,0.47746 -0.80741,0.93762 -0.85658,1.02259 l -0.26905,0.30768 c -0.0989,0.0842 -0.77935,0.8404 -1.51232,1.68031 -2.41551,2.76798 -5.53819,6.3267 -5.58923,6.36968 -0.0277,0.0232 -0.61199,0.68832 -1.29869,1.47801 -1.93251,2.22233 -2.10479,2.41785 -2.27855,2.58592 -0.0894,0.0865 -0.13844,0.18122 -0.10914,0.21062 0.0294,0.0294 0.51975,-0.0841 1.08977,-0.2521 2.54501,-0.75034 5.52599,-1.59876 5.75725,-1.63858 l 0.2529,-0.0435 -0.25849,0.26577 c -0.28331,0.29132 -0.20205,0.26382 -6.06405,2.05055 -1.66915,0.50875 -3.56592,1.09145 -4.21502,1.29488 -2.10283,0.65903 -4.8454,1.48074 -4.9422,1.48074 -0.0616,0 -0.0544,-0.0513 0.0209,-0.14781 z m 47.84007,12.47161 c -0.0208,-0.0658 -0.0605,-0.32872 -0.088,-0.5842 -0.0275,-0.25549 -0.14549,-0.78757 -0.26212,-1.18241 -0.11661,-0.39485 -0.32816,-1.26897 -0.47009,-1.94252 l -0.25807,-1.22464 -0.0691,-4.18064 c -0.0451,-2.73084 -0.10297,-4.29237 -0.16671,-4.50277 -0.0961,-0.31722 -0.39474,-0.82766 -1.02622,-1.32873 -0.7814,-0.59825 -1.28706,-0.71668 -1.99215,-1.0096 -0.0261,0 -0.54899,-0.2135 -1.1622,-0.47447 -1.34699,-0.57323 -1.37841,-0.61137 -1.21567,-1.4755 0.0622,-0.33037 0.15375,-0.61112 0.2034,-0.62389 0.35403,-0.0912 2.64176,-0.403 3.48471,-0.47511 1.58405,-0.13548 3.34337,0.009 4.52979,0.37232 1.45098,0.44419 3.00169,1.30067 2.98662,1.64955 -0.003,0.0901 -0.27328,0.27155 -0.75251,0.50694 -0.92378,0.45375 -1.43374,0.86943 -1.39126,1.13404 0.0167,0.10362 0.12918,0.83458 0.25009,1.62426 0.1209,0.78968 0.33225,2.15014 0.46967,3.02325 0.29384,1.86689 0.31333,2.59077 0.0813,3.01548 l -0.16153,0.29559 -0.003,-0.36251 c -0.002,-0.19938 -0.0578,-0.63644 -0.12421,-0.97126 -0.0664,-0.33482 -0.25784,-1.36888 -0.42548,-2.29791 -0.16763,-0.92903 -0.35825,-1.95518 -0.42358,-2.28035 -0.0654,-0.32516 -0.14315,-0.78124 -0.17294,-1.01349 -0.12679,-0.98854 -0.32331,-1.63374 -0.73311,-2.40704 -0.67321,-1.27034 -0.60975,-1.20635 -1.15355,-1.16346 -0.67414,0.0531 -1.09819,0.28455 -1.34579,0.73431 -0.39331,0.71452 -0.19713,1.68894 0.4945,2.45613 0.49932,0.55385 0.76435,1.0054 0.84728,1.44355 0.13588,0.71779 0.0945,2.83047 -0.0937,4.78703 -0.21949,2.28135 -0.15646,4.29781 0.22986,7.35456 0.0933,0.73821 0.1056,1.06951 0.0421,1.1332 -0.0635,0.0636 -0.10092,0.055 -0.1277,-0.0298 z m -30.58326,1.12622 c -0.22044,-0.0487 -0.25617,-0.55545 -0.11428,-1.6206 0.0709,-0.53123 0.12873,-0.9778 0.12873,-0.99238 0,-0.0145 -0.2435,-0.0265 -0.54109,-0.0265 -0.53554,0 -0.54299,0.003 -0.72948,0.31673 -0.23644,0.39745 -0.39512,0.52785 -0.64231,0.52785 -0.21121,0 -0.24205,-0.0891 -0.10995,-0.31786 0.0466,-0.0807 0.32758,-0.79275 0.62442,-1.58242 0.29682,-0.78969 0.71468,-1.88346 0.92856,-2.43058 0.40131,-1.02664 0.40945,-1.14704 0.0951,-1.40843 -0.0721,-0.0599 -0.13105,-0.17825 -0.13105,-0.26292 0,-0.0848 -0.0917,-0.20356 -0.20363,-0.26415 -0.41752,-0.22593 -1.57014,-1.09903 -1.65122,-1.25079 -0.11923,-0.22321 -0.10411,-0.59637 0.0305,-0.75304 0.26555,-0.30905 0.38043,-1.2804 0.21155,-1.78877 -0.13491,-0.40611 -0.26984,-0.52145 -0.67448,-0.57661 -0.7562,-0.10305 -0.39745,-0.41699 0.60125,-0.52613 0.34775,-0.038 0.8409,-0.10901 1.09591,-0.15789 0.87685,-0.16794 1.39187,-0.23686 1.82322,-0.24397 0.26832,-0.005 0.47093,-0.0538 0.53423,-0.13023 0.18888,-0.35439 0.37421,-0.0463 0.37421,-0.0463 0.36325,-0.0325 0.39297,-0.007 0.76406,-0.28165 0.25765,-0.19069 0.48719,-0.31749 0.52438,-0.31749 0.0723,0 0.24812,0.315 0.20308,0.35454 -0.0149,0.0129 -0.20204,0.0508 -0.3875,0.14838 -0.46504,0.24462 -0.64992,0.42376 -0.82193,0.79639 -0.40983,0.88779 0.0617,1.9508 1.84548,4.15988 1.53862,1.90554 1.68458,2.20716 1.16407,2.40543 -0.16488,0.0628 -0.26417,0.052 -0.40027,-0.0435 -0.0995,-0.0698 -0.29586,-0.12686 -0.43623,-0.12665 -0.14037,1.7e-4 -0.78204,-0.10202 -1.42592,-0.22715 l -1.17071,-0.22752 -0.16398,0.20288 c -0.10571,0.13082 -0.14871,0.27937 -0.12099,0.41818 0.0236,0.11843 0.0114,0.57592 -0.0281,1.01666 -0.0391,0.44074 -0.1557,1.75148 -0.25904,2.91278 -0.10331,1.1613 -0.21338,2.1406 -0.24453,2.17626 -0.0834,0.0955 -0.52938,0.20349 -0.69204,0.16759 z m -11.33399,8.19223 c 0.11372,-2.31179 0.44014,-7.80935 0.51468,-8.66823 0.0512,-0.58947 -0.12117,-0.9448 -0.60283,-1.24304 -0.37753,-0.23377 -0.57116,-0.66612 -0.48452,-1.08187 0.0539,-0.32919 0.26891,-0.45998 0.59892,-0.78359 0.51064,-0.50524 0.55915,-0.73405 0.27884,-1.31532 -0.0927,-0.19229 -0.16861,-0.38194 -0.16861,-0.42148 0,-0.0395 -0.27892,-0.60084 -0.61984,-1.2474 -0.67419,-1.27867 -0.71494,-1.31892 -1.61412,-1.59487 -1.12607,-0.34558 -3.07698,-1.4829 -3.07698,-1.79379 0,-0.0651 0.10435,-0.15894 0.23183,-0.20836 0.22104,-0.0856 1.81485,-0.32607 2.17161,-0.32754 0.11098,-3.4e-4 0.32247,0.20029 0.61239,0.58117 0.24363,0.32003 0.49645,0.62636 0.56183,0.68072 0.11482,0.0955 0.76368,-0.20277 2.12765,-0.97796 0.48709,-0.27685 0.89045,-0.26536 1.1266,0.0321 0.1692,0.2131 0.18017,0.29493 0.13293,0.99237 -0.0713,1.053 -0.38495,5.85463 -0.68405,10.47274 -0.0722,1.11485 -0.24143,3.03414 -0.37604,4.26511 -0.13464,1.23097 -0.26836,2.50418 -0.29716,2.82933 -0.0781,0.88125 -0.10685,0.97127 -0.31079,0.97127 -0.17722,0 -0.17878,-0.0149 -0.12238,-1.16129 z"
           inkscape:connector-curvature="0"
           sodipodi:nodetypes="cccccsccccccccccccccccccsccccccccsccccccccccccccccccccccccsccccccccccccccccsccccccccccccccccccccccccccccccccccccccccsscsccccscccccccccccsccccccccccccccccccccccscssccccccccccscc" />
        <path
           id="path826"
           style="fill:#7b0d0e;fill-opacity:1;stroke-width:0.08437905"
           d="m -399.87845,145.43132 c -0.20894,-0.32022 -0.23585,-0.51739 -0.10503,-0.76978 0.0689,-0.13305 0.12588,-0.34209 0.12651,-0.46451 0.002,-0.47261 0.0802,-0.58305 0.4498,-0.63858 0.469,-0.0704 1.02937,-0.55794 1.53904,-1.3389 0.64376,-0.98642 0.66964,-1.00692 1.18954,-0.94184 l 0.44539,0.0558 0.001,-0.28422 c 6e-4,-0.15632 0.0312,-0.3314 0.0678,-0.38907 0.081,-0.12772 0.92868,-0.0804 1.20398,0.0672 0.16083,0.0863 0.21518,0.0655 0.42929,-0.16405 0.28137,-0.30163 0.56835,-0.34415 0.63368,-0.0939 0.0243,0.0936 0.11498,0.1689 0.20285,0.1689 0.25052,0 0.18581,0.22412 -0.13562,0.46975 -0.24671,0.18852 -0.34523,0.21541 -0.60826,0.16598 -0.17264,-0.0324 -0.41985,-0.11393 -0.54937,-0.181 -0.31926,-0.16541 -0.57118,-0.0321 -0.57118,0.30234 0,0.26261 -0.18822,0.50981 -0.38818,0.50981 -0.24824,0 -0.95883,0.42905 -1.18833,0.7175 -0.12978,0.16311 -0.36781,0.34021 -0.52896,0.39357 -0.28294,0.0937 -0.5411,0.34454 -0.72027,0.69986 -0.10651,0.21118 -0.43125,0.38207 -0.72927,0.38372 -0.18546,9.6e-4 -0.23539,0.0496 -0.28336,0.27572 -0.032,0.15099 -0.1188,0.34323 -0.19284,0.42726 -0.0864,0.098 -0.12601,0.27198 -0.11063,0.48563 0.0275,0.38234 -0.005,0.40822 -0.17781,0.14284 z m 11.28539,2.02698 c -0.0966,-0.36124 -0.0525,-0.71705 0.11548,-0.93097 0.33531,-0.42708 0.16845,-0.75661 -0.75813,-1.49719 -0.65002,-0.51953 -1.07311,-0.98644 -1.11971,-1.23569 -0.0249,-0.13327 -0.0721,-0.32738 -0.10492,-0.43133 -0.0915,-0.29016 0.1935,-0.36134 0.39862,-0.0996 0.34465,0.43985 0.65335,0.74952 0.99278,0.99585 0.79885,0.57977 1.04949,0.87742 1.14971,1.36534 0.0744,0.36243 0.0579,1.04971 -0.0339,1.41492 -0.003,0.0136 -0.0836,0.15614 -0.17817,0.31672 -0.19743,0.33523 -0.38803,0.37731 -0.4617,0.1019 z m -1.23334,1.17916 c 0,-0.5388 -0.35662,-1.32006 -0.60515,-1.32567 -0.10983,-0.002 -0.31473,0.2578 -0.28346,0.36009 0.0174,0.0567 0.0544,0.20765 0.0823,0.33539 0.0345,0.15809 0.10412,0.23226 0.2178,0.23226 0.13465,0 0.16699,0.0572 0.16699,0.2956 0,0.36846 -0.10171,0.37462 -0.3495,0.021 -0.10582,-0.15097 -0.22219,-0.28716 -0.25864,-0.30264 -0.0365,-0.0154 -0.067,-0.18651 -0.0678,-0.38006 -9e-4,-0.24937 -0.0747,-0.4602 -0.2529,-0.72357 -0.45453,-0.67202 -0.31805,-0.93743 0.48205,-0.93743 0.45074,0 0.53065,-0.0223 0.52811,-0.1478 -0.005,-0.22114 -0.0892,-0.50372 -0.43529,-0.80483 -0.1826,-0.15889 -0.26761,-0.41446 -0.3013,-0.57396 -0.13678,-0.56503 -0.61582,-0.9833 -1.04232,-1.17601 -0.22194,0 -0.46266,0.13358 -0.52256,0.28996 -0.0278,0.0726 0.0749,0.27319 0.24298,0.47487 0.35872,0.43016 0.36621,0.65177 0.0328,0.97175 l -0.25832,0.24794 -0.395,-0.42217 c -0.21727,-0.23219 -0.49525,-0.55519 -0.61773,-0.71777 l -0.2227,-0.29559 -0.15665,0.2739 c -0.0862,0.15065 -0.19391,0.26173 -0.23944,0.24684 -0.13388,-0.0438 -0.80237,-1.067 -0.80237,-1.22816 0,-0.12722 0.22043,-0.34122 0.55842,-0.54217 0.0521,-0.0311 0.19425,0.0361 0.31585,0.14892 0.19375,0.1799 0.25315,0.19406 0.48064,0.11461 0.1884,-0.0658 0.28557,-0.0646 0.35434,0.005 0.17808,0.17841 0.28087,0.10156 0.24747,-0.18514 -0.0517,-0.44316 0.11669,-0.93007 0.36032,-1.04222 0.11669,-0.0537 0.19093,-0.0632 0.16496,-0.021 -0.0259,0.0422 -0.008,0.0766 0.0405,0.0766 0.0482,0 0.11143,0.0951 0.14057,0.21114 0.0313,0.12498 0.11338,0.21114 0.20099,0.21114 0.25739,0 0.59234,0.32945 0.59234,0.58261 0,0.13752 0.0843,0.3119 0.20637,0.42677 0.11348,0.10683 0.23233,0.31261 0.26404,0.45727 0.0317,0.14467 0.14252,0.37745 0.24622,0.51727 0.10366,0.13982 0.2115,0.34923 0.23956,0.46535 0.0166,0.0689 -0.0321,0.17222 0.0575,0.30077 0.0615,0.0883 0.24943,0.19712 0.32324,0.27983 0.26496,0.29694 0.33752,0.45137 0.36969,0.78679 0.0227,0.23723 -0.008,0.55163 -0.0709,0.7285 -0.16077,0.45104 -0.14388,0.62369 0.0924,0.9446 0.28755,0.39045 0.28173,1.09794 -0.009,1.09794 -0.0766,-1e-5 -0.11743,-0.0966 -0.11743,-0.27774 z m -2.52901,3.06915 c -0.49019,-0.14658 -1.24333,-0.60846 -1.34048,-0.82209 -0.15123,-0.33251 0.0465,-0.41205 0.36931,-0.1486 0.35392,0.28879 1.18357,0.713 1.39446,0.713 0.24849,0 0.64183,-0.22006 0.7096,-0.39701 0.0315,-0.0824 0.0792,-0.3837 0.10583,-0.6695 0.0446,-0.47886 0.0342,-0.52412 -0.13278,-0.57722 -0.1181,-0.0376 -0.27963,0.003 -0.46385,0.11739 -0.15545,0.0963 -0.32732,0.17502 -0.38191,0.17502 -0.1779,0 -0.5131,-0.40937 -0.5131,-0.62663 0,-0.24507 0.24219,-0.41435 0.42605,-0.2978 0.0671,0.0425 0.25468,0.0791 0.41696,0.0813 0.16228,0.002 0.3687,0.0598 0.4587,0.12797 0.21094,0.15986 0.63721,0.1641 0.63721,0.007 0,-0.13618 0.17953,-0.22018 0.47055,-0.22018 0.16912,0 0.20386,0.042 0.20386,0.24694 0,0.23265 -0.0256,0.25098 -0.44258,0.31719 l -0.44259,0.0703 -0.0434,0.48902 c -0.0372,0.41951 -0.0185,0.5125 0.13189,0.65407 0.21011,0.19776 0.56606,0.21506 0.71541,0.0348 0.0739,-0.0893 0.13518,-0.10293 0.19466,-0.0434 0.0594,0.0595 0.0242,0.15366 -0.11234,0.29918 -0.15136,0.16142 -0.28391,0.21226 -0.5534,0.21226 -0.1949,0 -0.48228,0.052 -0.63864,0.11554 -0.38122,0.15495 -0.91116,0.21935 -1.16943,0.14215 z m 3.85538,1.74776 c -0.21717,-0.17658 -0.23073,-0.22444 -0.19733,-0.69636 0.0455,-0.64245 0.16756,-1.1113 0.33874,-1.30081 0.0747,-0.0828 0.13394,-0.29557 0.13394,-0.48179 0,-0.22901 0.0528,-0.37885 0.16859,-0.47815 0.13136,-0.11267 0.16861,-0.24915 0.16861,-0.61777 0,-0.34525 -0.0456,-0.53118 -0.16861,-0.68788 -0.0927,-0.11811 -0.16859,-0.25871 -0.16859,-0.31246 0,-0.0537 -0.17071,-0.26556 -0.37936,-0.4707 -0.23095,-0.22709 -0.37935,-0.44872 -0.37935,-0.56656 0,-0.27323 0.0834,-0.24509 0.55259,0.1865 0.22725,0.20904 0.43644,0.38006 0.46486,0.38006 0.0285,0 0.15253,0.18567 0.27581,0.41259 0.22789,0.41952 0.30548,1.07394 0.14682,1.23854 -0.0425,0.0441 -0.095,0.19426 -0.11663,0.33362 -0.0618,0.39838 -0.2266,0.98972 -0.35332,1.26778 -0.0638,0.13984 -0.13506,0.41352 -0.15847,0.60814 -0.0234,0.19464 -0.0822,0.42801 -0.13059,0.51863 -0.12513,0.23426 0.0428,0.68815 0.25448,0.68815 0.0882,0 0.16036,0.038 0.16036,0.0845 0,0.15237 -0.37449,0.0876 -0.61255,-0.10602 z m -12.15299,0.9743 c 0.0543,-0.34005 -0.0875,-0.69402 -0.36491,-0.91072 -0.0595,-0.0466 -0.12725,-0.19857 -0.1504,-0.33782 -0.0231,-0.13927 -0.0851,-0.33773 -0.13773,-0.44105 -0.0714,-0.14032 -0.071,-0.36466 0.002,-0.88681 0.0536,-0.38442 0.0975,-0.83421 0.0974,-0.99953 -7e-5,-0.16531 0.0555,-0.37435 0.12366,-0.46452 0.0681,-0.0901 0.12497,-0.27551 0.12645,-0.41186 10e-4,-0.13636 0.0845,-0.33509 0.1843,-0.44163 0.1946,-0.20752 0.24399,-0.8082 0.12387,-1.50634 -0.0514,-0.29907 -0.0115,-0.42506 0.34823,-1.09796 0.22349,-0.41805 0.46092,-0.76011 0.52762,-0.76011 0.0667,0 0.15754,0.10339 0.20188,0.2297 0.0634,0.18067 0.0487,0.26508 -0.0691,0.39549 -0.10628,0.11762 -0.13411,0.2372 -0.0959,0.4114 0.0374,0.17033 0.0139,0.27876 -0.0764,0.35385 -0.17007,0.1414 -0.17499,0.91496 -0.007,1.15475 0.11131,0.15926 0.0957,0.23822 -0.16758,0.84225 -0.15974,0.36659 -0.29089,0.71766 -0.29146,0.78017 -6.1e-4,0.0625 -0.0805,0.22537 -0.17748,0.36191 -0.1831,0.25761 -0.19932,0.45157 -0.14432,1.72402 0.0162,0.3767 0.0776,0.67419 0.16711,0.81112 0.31666,0.48426 0.25729,1.09184 -0.13888,1.42125 -0.12127,0.10087 -0.12952,0.0776 -0.0808,-0.22756 z m 4.41978,3.1876 c 0,-0.0918 0.0949,-0.22923 0.21075,-0.30531 0.14832,-0.0973 0.21076,-0.21442 0.21076,-0.39515 0,-0.14124 0.0888,-0.37441 0.19738,-0.51815 0.10857,-0.14374 0.22475,-0.37536 0.25821,-0.51472 0.0335,-0.13936 0.17222,-0.39367 0.30841,-0.56513 0.13618,-0.17147 0.24761,-0.34598 0.24761,-0.38779 0,-0.15004 1.09258,-1.12349 1.40704,-1.2536 0.17662,-0.073 0.38657,-0.19116 0.46657,-0.26238 0.104,-0.0925 0.25494,-0.11713 0.52931,-0.0861 0.31655,0.0358 0.39872,0.0155 0.46869,-0.11547 0.0466,-0.0874 0.17173,-0.15881 0.27792,-0.15881 0.10617,0 0.28219,-0.0951 0.39109,-0.21115 0.10891,-0.11613 0.22931,-0.21113 0.2676,-0.21113 0.12882,0 0.0654,0.37833 -0.0959,0.5721 -0.15415,0.18517 -0.99562,0.61056 -1.20681,0.61006 -0.12202,-2.7e-4 -1.18008,0.43578 -1.24103,0.51148 -0.0232,0.0288 -0.22256,0.15732 -0.44305,0.28561 -0.23981,0.13952 -0.4207,0.31227 -0.45016,0.42988 -0.0271,0.10809 -0.12172,0.26231 -0.21028,0.34261 -0.10777,0.0977 -0.16101,0.25859 -0.16101,0.48641 0,0.21521 -0.0584,0.40453 -0.15864,0.51476 -0.0872,0.096 -0.25196,0.35278 -0.366,0.57084 -0.11406,0.21806 -0.29872,0.49295 -0.41039,0.61086 -0.24622,0.25998 -0.49809,0.28542 -0.49809,0.0503 z m -5.72072,0.35781 c -0.0446,-0.0834 -0.10743,-0.29261 -0.13967,-0.46481 -0.0559,-0.2984 -0.0335,-0.33985 0.47723,-0.88325 0.29474,-0.31357 0.57832,-0.60905 0.63021,-0.65661 0.0519,-0.0475 0.2489,-0.3145 0.43782,-0.59322 0.18891,-0.27871 0.49233,-0.69172 0.67426,-0.91781 0.28951,-0.35978 0.33743,-0.48272 0.38407,-0.98552 0.0472,-0.50885 0.0287,-0.62343 -0.16159,-1.00308 l -0.21488,-0.42862 0.17278,-0.39131 c 0.12813,-0.29023 0.17264,-0.56854 0.17226,-1.07735 -3e-4,-0.52591 0.0439,-0.78921 0.18968,-1.12801 0.10457,-0.24308 0.22811,-0.44257 0.27448,-0.44331 0.0693,-0.001 0.17504,2.59634 0.13582,3.33455 -0.0312,0.58709 -0.0919,1.25607 -0.15725,1.73138 -0.12836,0.93443 -0.57448,1.82978 -1.08451,2.17661 -0.372,0.25298 -0.61529,0.51828 -0.61942,0.67544 -0.002,0.0689 -0.0711,0.09 -0.19455,0.059 -0.13755,-0.0346 -0.24284,0.0103 -0.37252,0.1601 -0.24501,0.2823 -0.36303,0.51603 -0.36303,0.71894 0,0.23246 -0.14256,0.30156 -0.24119,0.11692 z m -0.73194,3.51935 c -0.093,-0.15076 -0.29507,-1.2113 -0.25232,-1.32427 0.0219,-0.058 0.095,-0.10556 0.16235,-0.10556 0.0673,0 0.14701,-0.11221 0.17707,-0.24942 0.13454,-0.61369 0.58835,-0.81948 0.79672,-0.36129 0.0886,0.19483 0.0696,0.26254 -0.16864,0.60118 -0.15009,0.21333 -0.28764,0.53234 -0.31194,0.72343 -0.0401,0.31516 -0.23039,0.80633 -0.31246,0.80633 -0.0192,0 -0.0601,-0.0407 -0.0907,-0.0904 z m -0.0174,1.13242 c -0.0579,-0.0234 -0.10537,-0.11038 -0.10537,-0.1931 0,-0.0828 -0.0709,-0.24112 -0.15757,-0.35189 -0.12541,-0.16029 -0.13999,-0.24455 -0.0714,-0.41257 0.0792,-0.1943 0.0892,-0.19768 0.12564,-0.0424 0.0217,0.0929 0.17284,0.28425 0.33576,0.42536 0.23435,0.20295 0.28385,0.2956 0.23701,0.4435 -0.0579,0.1829 -0.15197,0.21674 -0.364,0.13102 z m 4.9757,0.74476 c -0.23773,-0.20393 -0.28399,-0.31391 -0.36688,-0.87222 -0.0873,-0.5881 -0.0797,-0.68042 0.0955,-1.16192 0.18182,-0.49957 0.18409,-0.5362 0.0507,-0.81637 -0.25328,-0.53211 -0.14193,-1.21663 0.19791,-1.21663 0.11303,0 0.14752,-0.0404 0.11257,-0.13171 -0.0337,-0.0881 0.009,-0.14736 0.1291,-0.17877 0.0987,-0.0258 0.18328,-0.0901 0.18785,-0.14277 0.005,-0.0527 0.0141,-0.19073 0.0211,-0.30687 0.0145,-0.23952 0.22494,-0.30358 0.70244,-0.21385 0.24898,0.0468 0.28055,0.0795 0.23188,0.23959 -0.031,0.10202 -0.1056,0.24242 -0.16577,0.3121 -0.0602,0.0697 -0.12208,0.2407 -0.13755,0.38005 -0.0264,0.2381 -0.0477,0.25182 -0.35245,0.22759 l -0.32433,-0.0258 0.0579,0.34387 c 0.1348,0.79937 0.0897,1.06867 -0.24821,1.48181 -0.3003,0.36716 -0.30986,0.39669 -0.17614,0.54472 0.11934,0.1321 0.12438,0.18379 0.0323,0.33142 -0.0938,0.1505 -0.0866,0.19131 0.0514,0.29245 0.1064,0.0779 0.16614,0.23516 0.17735,0.46672 0.009,0.19205 0.0591,0.40015 0.11074,0.46242 0.0866,0.10454 0.0493,0.22901 -0.0663,0.22095 -0.0271,-0.002 -0.17159,-0.10843 -0.3212,-0.23678 z m 3.73277,2.05437 c -0.26099,-0.34283 -0.34525,-0.72807 -0.24397,-1.11544 0.0672,-0.25686 0.0822,-0.26557 0.28169,-0.16363 0.17623,0.09 0.20668,0.15891 0.18594,0.42045 -0.0183,0.23086 0.0313,0.38655 0.18968,0.59449 0.27406,0.35999 0.27898,0.56141 0.0137,0.56141 -0.13057,0 -0.27986,-0.10397 -0.42707,-0.29728 z m 0.84045,-0.0851 c -0.1949,-0.34916 -0.29799,-0.63553 -0.28124,-0.78124 0.0232,-0.2015 0.063,-0.23 0.32151,-0.23 0.28804,0 0.29524,0.008 0.30279,0.34669 0.005,0.19069 0.0706,0.43668 0.14752,0.54666 0.19861,0.28406 0.1862,0.66911 -0.0215,0.66911 -0.11098,0 -0.25732,-0.17195 -0.46903,-0.55122 z m -10.74426,3.94062 c -0.0464,-0.0868 -0.0624,-0.17974 -0.0357,-0.20657 0.0869,-0.0871 0.27657,-1.10295 0.27962,-1.49704 10e-4,-0.21089 0.0649,-0.60995 0.14062,-0.88681 0.0758,-0.27686 0.155,-0.71241 0.17619,-0.96789 0.0214,-0.25731 0.0989,-0.53205 0.17371,-0.61593 0.24968,-0.27962 0.3892,-0.77313 0.39893,-1.41105 0.007,-0.45005 0.0394,-0.62704 0.11246,-0.61135 0.14505,0.0312 0.46624,0.0908 0.52917,0.0984 0.15653,0.0185 -0.15886,1.84367 -0.37096,2.14657 -0.24701,0.35275 -0.48277,1.1874 -0.48277,1.70915 0,0.28046 -0.0785,0.65974 -0.20395,0.98485 -0.11212,0.29082 -0.22938,0.68077 -0.26045,0.86658 -0.0874,0.52272 -0.29279,0.69853 -0.45697,0.39116 z m -2.09901,2.80514 c 0.0848,-0.0768 0.15416,-0.24841 0.15416,-0.3812 0,-0.13279 0.0329,-0.30742 0.073,-0.38809 0.0401,-0.0807 0.11268,-0.27017 0.16128,-0.42113 0.0791,-0.24593 0.0712,-0.27449 -0.0758,-0.27449 -0.29451,0 -0.74833,0.23809 -0.75649,0.39686 -0.0324,0.62918 0.0807,1.20783 0.23597,1.20783 0.0295,0 0.123,-0.0628 0.20779,-0.13978 z m -1.19465,0.32604 c 0,-0.23012 -0.0525,-0.56733 -0.11655,-0.74937 -0.10251,-0.29115 -0.1,-0.36275 0.021,-0.59505 0.15551,-0.29839 0.3365,-0.44999 1.07984,-0.90458 l 0.5207,-0.31844 1.1847,0.0611 1.1847,0.0611 0.24964,-0.26775 c 0.37869,-0.40614 1.52404,-4.00851 1.52404,-4.79347 0,-0.0953 0.15174,-0.44981 0.3372,-0.78785 0.18546,-0.33801 0.3372,-0.66105 0.3372,-0.71783 0,-0.0568 0.0983,-0.40308 0.21845,-0.76953 0.27965,-0.853 0.29229,-1.74266 0.0287,-2.0237 -0.12323,-0.13144 -0.15626,-0.24436 -0.11712,-0.40057 0.0444,-0.17705 0.11189,-0.22233 0.36264,-0.24327 0.26753,-0.0223 0.31172,-0.057 0.33527,-0.26272 0.015,-0.13033 -0.0514,-0.38805 -0.14752,-0.5727 -0.19195,-0.36895 -0.22039,-0.70574 -0.0888,-1.05235 0.0689,-0.18166 0.12279,-0.21529 0.27398,-0.17113 0.37463,0.10946 0.73144,0.15274 0.85795,0.10408 0.1016,-0.0391 0.11155,-0.0963 0.0463,-0.26798 -0.0752,-0.19812 -0.0373,-0.26454 0.41035,-0.71859 0.41463,-0.42059 0.53543,-0.61641 0.7582,-1.22908 0.24439,-0.6721 0.26509,-0.81186 0.26628,-1.79702 6.1e-4,-0.58753 0.037,-1.12488 0.0807,-1.19411 0.14435,-0.13018 0.12208,-0.20357 -0.0425,-0.31229 -0.13586,-0.20775 -0.0843,-0.44864 0.096,-0.44864 0.0843,0 0.23655,-0.10645 0.20592,-0.19783 -0.0875,-0.26116 -0.13534,-0.23484 -0.24689,-0.33009 -0.1148,-0.17555 -0.10739,-0.28591 -0.0587,-0.94981 l 0.0584,-0.79696 -0.22364,-0.0562 c -0.12301,-0.031 -0.29225,-0.16926 -0.37611,-0.30739 -0.14347,-0.23636 -0.14425,-0.26944 -0.013,-0.56148 0.0767,-0.17068 0.22475,-0.40186 0.32907,-0.51371 0.11189,-0.12005 0.18968,-0.31031 0.18968,-0.46428 0,-0.28343 -0.21905,-0.66723 -0.33857,-0.59323 -0.0995,0.0616 -0.0256,-0.30327 0.0837,-0.41271 0.0474,-0.0475 0.0863,-0.17698 0.0863,-0.28766 0,-0.18768 -0.027,-0.19933 -0.40042,-0.17313 -0.38238,0.0267 -0.40165,0.0176 -0.42716,-0.20465 -0.0174,-0.15178 0.0192,-0.25042 0.10538,-0.28353 0.21745,-0.0836 0.15059,-0.24596 -0.16295,-0.39576 -0.36262,-0.17324 -0.37061,-0.26077 -0.0365,-0.39942 0.24097,-0.1 0.27465,-0.0907 0.49478,0.13755 0.62801,0.65103 0.89845,0.76661 1.17272,0.50119 0.18919,-0.18308 -0.0169,-0.44339 -0.40271,-0.5087 -0.47238,-0.0799 -0.58834,-0.24627 -0.34937,-0.50112 l 0.18713,-0.19956 -0.19108,-0.13408 -0.19105,-0.13407 0.20598,-0.22087 c 0.1783,-0.19117 0.25366,-0.21441 0.56059,-0.17276 0.19546,0.0266 0.37741,0.0114 0.40541,-0.0343 0.071,-0.1151 1.05245,-0.10637 1.05245,0.009 0,0.056 0.13882,0.0807 0.35646,0.0633 0.294,-0.0233 0.3619,-6.3e-4 0.38751,0.12973 0.0326,0.16563 -0.22256,0.81316 -0.32033,0.81316 -0.0311,0 -0.14256,0.17252 -0.24767,0.38338 -0.15773,0.31642 -0.17233,0.40605 -0.0835,0.51319 0.12774,0.15422 0.57423,0.0961 0.94595,-0.1231 0.22211,-0.13096 0.24276,-0.13067 0.31851,0.005 0.0446,0.0794 0.27556,0.24247 0.51338,0.36214 0.35038,0.17631 0.50182,0.20714 0.79848,0.16257 0.36079,-0.0542 0.3661,-0.0514 0.3661,0.1913 0,0.27106 -0.55781,0.91293 -0.91172,1.04911 -0.36254,0.1395 -0.77021,0.088 -0.96799,-0.12231 -0.2843,-0.30228 -0.51959,-0.32288 -0.94801,-0.083 -0.20804,0.11648 -0.41799,0.2862 -0.46656,0.37714 -0.11461,0.21452 -0.0696,0.50271 0.0908,0.58161 0.46392,0.22812 0.60264,0.26796 0.80087,0.22999 0.18103,-0.0347 0.2383,-0.002 0.30476,0.17296 0.0914,0.24102 0.008,1.36796 -0.10092,1.36796 -0.0382,0 -0.13245,0.13301 -0.20946,0.2956 -0.077,0.16257 -0.20064,0.2956 -0.27474,0.2956 -0.0741,0 -0.28791,-0.15002 -0.47512,-0.33337 -0.22425,-0.21962 -0.46381,-0.36091 -0.70211,-0.41409 -0.33592,-0.075 -0.37157,-0.0656 -0.50033,0.13127 -0.12888,0.19707 -0.12817,0.28717 0.0103,1.27978 0.13987,0.87876 0.24401,1.15267 0.44053,1.71983 0.34105,0.65906 0.108,2.56237 -0.44024,3.5954 -0.11109,0.20935 -0.20201,0.44425 -0.20201,0.52201 0,0.0777 -0.11177,0.37252 -0.24836,0.65504 -0.2543,0.52595 -0.41726,0.64098 -1.01302,0.71509 -0.27684,0.0345 -0.34671,0.37967 -0.28726,1.41936 l 0.0458,0.80234 -0.43552,1.09795 c -0.23953,0.60388 -0.44086,1.24997 -0.44739,1.43578 -0.007,0.1858 0.0973,0.67988 0.23056,1.09795 0.24911,0.78104 0.29613,0.8467 1.17091,1.63506 l 0.31483,0.28373 -0.71313,0.66847 c -1.16023,1.08754 -1.71593,1.98598 -1.79525,2.90248 -0.0657,0.75978 -0.50033,1.40299 -1.38232,2.04596 -0.40473,0.29504 -0.56305,0.36108 -0.86568,0.36108 -0.23244,0 -0.41093,0.049 -0.47932,0.13156 -0.0599,0.0723 -0.20684,0.122 -0.32645,0.11037 -0.11962,-0.0117 -0.30034,0.0241 -0.40162,0.0795 -0.10411,0.057 -0.51401,0.10087 -0.94289,0.10087 -0.41732,0 -0.84658,0.033 -0.95392,0.0732 -0.10732,0.0403 -0.45122,0.1003 -0.7642,0.13341 l -0.56902,0.0601 v -0.4184 z m 31.0561,2.9161 c -0.0975,-0.10374 -0.24504,-0.3216 -0.3279,-0.48417 -0.15483,-0.30385 -0.2892,-0.43629 -0.38342,-0.37794 -0.0295,0.0183 -0.039,-0.63018 -0.021,-1.44096 0.0296,-1.33559 0.0167,-1.51026 -0.13686,-1.85804 -0.25238,-0.57164 -0.79774,-1.06773 -1.37849,-1.254 -0.0818,-0.0263 -0.18751,-0.13422 -0.23484,-0.23993 -0.0473,-0.10567 -0.21674,-0.40122 -0.37648,-0.6567 -0.15973,-0.25549 -0.35201,-0.59755 -0.42726,-0.76012 -0.19749,-0.42662 -1.01747,-1.47794 -1.35228,-1.73378 -0.24663,-0.18847 -0.33838,-0.211 -0.66167,-0.16243 -0.4628,0.0695 -0.66949,0.32113 -1.00274,1.22054 -0.43521,1.1746 -0.69865,1.78551 -0.77651,1.80072 -0.0426,0.008 -0.10709,-0.21291 -0.14339,-0.49162 -0.0362,-0.27871 -0.12903,-0.79179 -0.20616,-1.14018 -0.18892,-0.85337 -0.1861,-1.46188 0.008,-1.67651 0.0832,-0.0921 0.35683,-0.25097 0.60817,-0.35318 0.48923,-0.19893 0.55367,-0.32819 0.326,-0.65383 -0.1795,-0.25677 -1.40685,-1.18342 -1.76724,-1.33428 -0.22135,-0.0927 -0.29357,-0.17352 -0.29357,-0.3287 0,-0.11325 -0.0626,-0.24091 -0.13911,-0.28381 -0.10285,-0.0576 -0.12556,-0.14587 -0.0872,-0.33813 0.0652,-0.32652 -0.27878,-1.94559 -0.59521,-2.80165 -0.0257,-0.0697 -0.061,-0.20062 -0.0783,-0.29098 -0.0173,-0.0904 -0.21265,-0.43241 -0.43411,-0.76013 -0.22145,-0.32769 -0.46861,-0.76183 -0.54926,-0.96473 -0.0807,-0.20291 -0.24052,-0.49223 -0.35526,-0.64295 -0.11474,-0.15072 -0.26958,-0.45322 -0.34406,-0.67225 -0.0745,-0.21901 -0.18777,-0.41833 -0.25174,-0.44292 -0.30037,-0.33857 -0.69092,-0.71305 -0.85771,-1.07193 -0.2135,-0.36253 -0.30761,-0.77965 -0.19207,-0.85119 0.14372,-0.089 1.21541,1.07755 1.78022,1.93776 0.44392,0.63538 0.47178,0.72664 0.75287,1.15717 0.0936,0.15376 0.17026,0.32872 0.17045,0.38881 1.6e-4,0.0601 0.13959,0.26007 0.30981,0.4444 0.3739,0.40485 0.82708,1.20313 0.9103,1.60349 0.0334,0.16068 0.167,0.4841 0.29687,0.71872 0.12987,0.23463 0.33189,0.6907 0.44889,1.01349 0.42802,1.18073 0.60679,1.55718 0.76397,1.60883 0.0871,0.0287 0.35975,0.25708 0.60588,0.50766 0.39583,0.40296 0.447,0.49517 0.44283,0.7982 -0.008,0.61494 0.369,0.81994 1.73757,0.94372 0.15398,0.0138 0.40439,0.16552 0.6647,0.4024 0.41894,0.35133 0.45313,0.41174 0.69173,0.67733 0.25414,0.2392 0.53109,0.95524 0.56012,1.44817 0.0297,0.50479 0.34588,1.05044 0.64315,1.11002 0.12792,0.0257 0.3337,0.12628 0.45729,0.22367 0.30888,0.24343 0.71025,0.98082 0.78348,1.43939 0.0334,0.20903 0.0977,0.45062 0.14296,0.53684 0.0743,0.14166 0.15921,0.96436 0.28444,2.75701 0.0585,0.83846 0.0849,0.9477 0.28406,1.17773 0.29592,0.34183 0.0135,0.48416 -0.29967,0.15101 z m -16.71951,2.94775 c -0.18472,-0.38231 -0.22992,-0.76747 -0.42752,-3.64307 -0.12521,-1.8222 -0.13026,-1.84429 -0.40841,-1.78327 -0.23522,0.0516 -2.92712,0.35456 -3.93255,0.44257 -0.38185,0.0335 -0.62681,0.0979 -0.69413,0.18262 -0.0934,0.1175 -0.12126,0.11537 -0.27141,-0.0207 -0.14655,-0.13287 -0.3409,-0.15213 -1.56189,-0.15478 -1.35302,-0.002 -1.40084,0.002 -1.60715,0.1971 -0.18987,0.17872 -0.24073,0.18951 -0.47503,0.10087 -0.33988,-0.21298 -0.59014,-0.18786 -1.01246,-0.1885 -0.9817,6.1e-4 -1.25625,0.0957 -1.65529,0.57325 -0.45194,0.54079 -0.89135,0.69412 -1.98772,0.69357 -0.76494,-3e-4 -0.85872,-0.0185 -1.11699,-0.21588 -0.15506,-0.11848 -0.28193,-0.27119 -0.28193,-0.33936 0,-0.17185 -0.66479,-0.12535 -0.87114,0.0609 -0.1471,0.13279 -0.74719,0.32496 -1.01478,0.32496 -0.18964,0 -0.38987,-0.24041 -0.33013,-0.39637 0.0353,-0.0924 0.0202,-0.11786 -0.0457,-0.077 -0.0626,0.0388 -0.0986,1e-5 -0.0986,-0.10614 0,-0.11953 0.0772,-0.18416 0.27062,-0.22673 0.14885,-0.0328 0.40888,-0.13175 0.57787,-0.22 0.24938,-0.13022 0.45642,-0.15642 1.09926,-0.13911 0.81306,0.0218 1.82244,-0.0747 1.97222,-0.18895 0.0464,-0.0354 0.46297,-0.0923 0.92578,-0.1266 0.46281,-0.0344 0.95597,-0.0987 1.09591,-0.14298 0.38894,-0.12323 2.54832,-0.39933 3.13878,-0.40133 0.28816,-9.1e-4 0.68648,-0.055 0.88515,-0.12008 0.19868,-0.065 0.82646,-0.13568 1.39508,-0.15689 0.77002,-0.0288 1.0712,-0.0718 1.1802,-0.16883 0.1088,-0.0969 0.39541,-0.13819 1.11582,-0.16109 0.5332,-0.0169 1.01784,-0.0616 1.07698,-0.0993 0.0787,-0.05 0.005,-0.1831 -0.27659,-0.49641 -0.41862,-0.46647 -0.90893,-1.40757 -1.04649,-2.00862 -0.0479,-0.20903 -0.0879,-0.70897 -0.089,-1.11098 -0.003,-1.26854 0.56707,-2.52018 1.45212,-3.185 0.42566,-0.31975 0.49535,-0.52641 0.26391,-0.78263 -0.10366,-0.11477 -0.12314,-0.24049 -0.0809,-0.52263 0.0465,-0.31088 0.11348,-0.41328 0.41049,-0.62763 0.1952,-0.14087 0.46632,-0.36003 0.60251,-0.48702 0.1362,-0.12699 0.49657,-0.34513 0.80086,-0.48475 0.47697,-0.21883 0.64528,-0.25245 1.22097,-0.24389 0.53378,0.008 0.7029,0.0426 0.84301,0.17293 0.10228,0.0952 0.35077,0.18241 0.59676,0.20961 0.63063,0.0697 0.99241,0.14979 1.18021,0.2611 0.27264,0.16158 1.25304,0.16855 1.3845,0.0103 0.1658,-0.20012 0.26076,-0.0793 0.16161,0.20573 -0.0587,0.16864 -0.1616,0.26852 -0.31109,0.30193 -0.12287,0.0274 -0.34069,0.0794 -0.48404,0.11568 -0.31418,0.0792 -0.89947,-0.009 -1.62603,-0.24515 -0.29583,-0.0962 -0.65622,-0.17542 -0.80086,-0.17612 -0.14465,-6e-4 -0.41473,-0.056 -0.60019,-0.12298 -0.18547,-0.067 -0.5705,-0.12337 -0.85563,-0.12541 l -0.51842,-0.003 -0.44157,0.48564 c -0.24286,0.2671 -0.53974,0.55092 -0.65974,0.63072 -0.30802,0.20486 -0.34948,0.39435 -0.13664,0.62444 0.17715,0.19151 0.37803,0.71903 0.37803,0.99276 0,0.0759 -0.0569,0.138 -0.12646,0.138 -0.0696,0 -0.12644,-0.0526 -0.12644,-0.11684 0,-0.0642 -0.0717,-0.13561 -0.15924,-0.15856 -0.11405,-0.0299 -0.26357,0.0788 -0.52688,0.38271 -0.63531,0.52474 -0.8467,0.98307 -1.00317,1.63389 -0.30171,0.90834 -0.15801,1.41741 0.62977,2.23102 0.53375,0.55124 1.27239,0.89386 2.30907,1.07109 1.27234,0.21753 1.78528,0.0489 2.3506,-0.77303 0.38244,-0.55598 0.56241,-1.21591 0.50648,-1.85709 -0.068,-0.77943 -0.35272,-1.58287 -0.69266,-1.9547 -0.16218,-0.1774 -0.29488,-0.34574 -0.29488,-0.37409 0,-0.0284 0.0917,-0.17608 0.20379,-0.32829 0.20305,-0.27572 0.20319,-0.27735 0.037,-0.4438 -0.20407,-0.20445 -0.18271,-0.60692 0.0344,-0.64818 0.0818,-0.0155 0.25831,0.0601 0.39215,0.16818 0.13385,0.10809 0.37038,0.29114 0.52561,0.40682 0.74388,0.55437 1.31705,1.19648 1.56727,1.75577 0.45049,1.00691 0.43701,0.95271 0.45656,1.83448 0.0258,1.16304 -0.35114,2.24096 -1.07051,3.06129 l -0.38856,0.44309 0.22734,0.0866 c 0.3092,0.11777 3.72666,1.18711 4.04238,1.26489 0.1391,0.0343 0.59432,0.17624 1.01161,0.31551 0.41728,0.13928 1.04321,0.3381 1.39096,0.44182 0.34774,0.10374 0.72709,0.22109 0.84301,0.26081 0.11591,0.0397 0.54673,0.17258 0.95738,0.29523 0.41065,0.12267 0.71414,0.25222 0.67441,0.28789 -0.0398,0.0358 -0.30567,0.12199 -0.59097,0.1918 l -0.51873,0.12693 -2.68469,-0.62057 c -1.47658,-0.3413 -3.43418,-0.79639 -4.35024,-1.01129 -1.78002,-0.41757 -2.03381,-0.42868 -2.57537,-0.11256 -0.15333,0.0896 -0.32653,0.16273 -0.38489,0.16273 -0.0729,0 -0.13798,0.29704 -0.20808,0.95014 -0.0561,0.52258 -0.15809,1.40622 -0.22666,1.96364 -0.0686,0.55743 -0.1492,1.30934 -0.17917,1.67093 -0.0301,0.36159 -0.0833,0.67526 -0.11844,0.69704 -0.0352,0.0217 -0.14421,-0.12655 -0.24232,-0.3296 z"
           inkscape:connector-curvature="0"
           sodipodi:nodetypes="ccccccccccccscccsscccccccccccccccccccccccccssccccscccccccccccccscccccccscssccccsccccccccccsccccsscccssscccccccsccccccscscscscsccccccsscccccccccccccscccccccccccccccscccsccccscsccccccsccccccccccccccccccccccccsccccsccccscccscccccccccccscccccccccccccccccccccccccsccccsccsccccccccccccscccccsccscsccccccccccscscccccccccccccccsscccccccsccscccccccccccccccsccsscccscscccccccscsccccccsccccccccccccscccsccccccccccccccccccccccccsccccccscccccccccccccccccccccccccccccccccccccccscsccscccccccccccccccccccccccccccccccccccccsssscccccccsccccccccccccccccccczcscccccc" />
      </g>
      <g
         id="flowRoot944"
         style="font-style:normal;font-weight:normal;font-size:40px;line-height:1.25;font-family:sans-serif;letter-spacing:0px;word-spacing:0px;fill:#505050;fill-opacity:1;stroke:none"
         transform="matrix(0.0812239,0,0,0.07477903,-312.33249,126.26778)"
         aria-label="CONGRESO DE LOS  DIPUTADOS" />
    </g>
  </g>
</svg>
